<svg xmlns="http://www.w3.org/2000/svg" width="22.986" height="21.965" viewBox="0 0 22.986 21.965">
  <g id="Group_39106" data-name="Group 39106" transform="translate(-2268.92 -42.778)">
    <path id="Path_10044" data-name="Path 10044" d="M2289.812,48.082c-.065.462-.127,1.208-.287,1.934a1.36,1.36,0,0,0,.419,1.362q.768.771,1.521,1.556a.987.987,0,0,1,.033,1.622,5.185,5.185,0,0,1-.84.864,2.659,2.659,0,0,0-1.044,2.934c.083.476.184.95.233,1.429.075.726-.13.994-.844,1.139a8.436,8.436,0,0,1-1.077.148,3.128,3.128,0,0,0-2.816,1.956c-.141.311-.288.621-.449.922-.462.863-.777.968-1.642.546-.325-.159-.644-.333-.958-.512a3.13,3.13,0,0,0-3.273,0c-.4.225-.81.45-1.233.635a.8.8,0,0,1-1.179-.36,13.755,13.755,0,0,1-.625-1.238,3.169,3.169,0,0,0-2.82-1.958,7.346,7.346,0,0,1-1.249-.207.816.816,0,0,1-.729-1.05c.06-.478.153-.954.259-1.424a2.956,2.956,0,0,0-.9-2.913c-.344-.34-.713-.657-1.033-1.017a.886.886,0,0,1,.009-1.428c.308-.344.66-.65.994-.971a2.894,2.894,0,0,0,.882-3.125,6.535,6.535,0,0,1-.206-1.248c-.06-.623.147-.9.767-1.013.533-.1,1.078-.14,1.611-.24a3.153,3.153,0,0,0,2.474-1.988,9.162,9.162,0,0,1,.433-.927c.439-.793.755-.891,1.561-.5.634.306,1.274.6,1.894.935a1.408,1.408,0,0,0,1.432.015c.676-.356,1.364-.692,2.055-1.02a.88.88,0,0,1,1.357.427,9.485,9.485,0,0,1,.647,1.293,2.556,2.556,0,0,0,2.482,1.768,7.249,7.249,0,0,1,1.307.2C2289.788,46.821,2289.878,46.963,2289.812,48.082Zm-17.055,10.783c-.016.5.243.611.614.638a7.883,7.883,0,0,1,1.372.168,3.41,3.41,0,0,1,2.347,2.386c.3.807.458.841,1.176.365.1-.067.2-.137.3-.2a3.316,3.316,0,0,1,3.651-.029c.207.123.406.261.617.377.481.266.606.222.815-.273.125-.3.227-.6.375-.887a3.417,3.417,0,0,1,3-1.92c1.2-.073,1.2-.062.912-1.224a3.451,3.451,0,0,1,1.333-3.849c.08-.061.166-.115.242-.181.411-.355.411-.627-.006-.991-.106-.093-.227-.168-.336-.256a3.334,3.334,0,0,1-1.333-3.239c.05-.357.144-.708.222-1.061.115-.517.008-.661-.518-.684-.121-.005-.242,0-.363,0a3.514,3.514,0,0,1-3.339-2.344c-.432-1.106-.48-1.117-1.472-.474a3.323,3.323,0,0,1-3.9.015c-1.015-.658-1.032-.66-1.466.445a3.326,3.326,0,0,1-3.2,2.329c-1.078.015-1.184.237-.9,1.273a3.371,3.371,0,0,1-1.28,3.8c-.063.05-.13.1-.192.146-.534.433-.531.695.013,1.143q.093.077.189.15a3.351,3.351,0,0,1,1.284,3.743C2272.855,58.469,2272.8,58.7,2272.756,58.865Z" fill="#2c3e50"/>
    <path id="Path_10045" data-name="Path 10045" d="M2330.581,107.617c-.577-.024-.884-.52-.675-.914a2.064,2.064,0,0,1,.367-.473q3.243-3.257,6.493-6.506a2.472,2.472,0,0,1,.314-.282.645.645,0,0,1,.838.018.606.606,0,0,1,.08.823,1.605,1.605,0,0,1-.3.379q-3.289,3.3-6.588,6.582A3.2,3.2,0,0,1,2330.581,107.617Z" transform="translate(-53.552 -49.681)" fill="#2c3e50"/>
    <path id="Path_10046" data-name="Path 10046" d="M2327.836,99.368a2.021,2.021,0,0,1-1.976-1.967,2.078,2.078,0,0,1,1.994-1.967,2.022,2.022,0,0,1,1.962,1.982A1.986,1.986,0,0,1,2327.836,99.368Zm.653-1.962a.609.609,0,0,0-.633-.652.632.632,0,0,0-.669.627.653.653,0,0,0,.679.684A.607.607,0,0,0,2328.489,97.406Z" transform="translate(-50.052 -46.286)" fill="#2c3e50"/>
    <path id="Path_10047" data-name="Path 10047" d="M2373.459,140.91a2,2,0,0,1-1.947,1.976,1.975,1.975,0,0,1-1.967-1.949,1.94,1.94,0,0,1,1.936-1.969A1.982,1.982,0,0,1,2373.459,140.91Zm-1.334.005a.628.628,0,0,0-.653-.642.65.65,0,0,0,.034,1.3A.584.584,0,0,0,2372.125,140.915Z" transform="translate(-88.454 -84.555)" fill="#2c3e50"/>
  </g>
</svg>
